<svg width="159" height="77" viewBox="0 0 159 77" fill="none" xmlns="http://www.w3.org/2000/svg">
<path d="M32.6773 34.1756H24.735V42.197H32.6773C34.8689 42.197 36.6513 40.4026 36.6513 38.1835C36.6513 35.9644 34.8745 34.1699 32.6773 34.1699V34.1756Z" fill="white"/>
<path d="M45.1486 0.23291H0V54.6623L10.2628 65.0273H55.4114V10.598L45.1486 0.23291ZM34.6672 48.2145H32.683V55.7378C32.683 56.0152 32.4588 56.2417 32.1841 56.2417H29.2022C28.9332 56.2417 28.7202 56.0265 28.709 55.7605V48.2202H24.735V55.7435C24.735 56.0209 24.5108 56.2473 24.2362 56.2473H21.2543C20.9853 56.2473 20.7723 56.0322 20.7611 55.7661V48.2259H12.4544C12.3031 48.2259 12.1573 48.1523 12.062 48.0334C11.9668 47.9088 11.9331 47.7503 11.9724 47.6032L12.7234 44.5746C12.7739 44.3651 12.9532 44.218 13.1606 44.1953C15.1896 44.0142 16.7871 42.2933 16.7871 40.1987V24.1501C16.7871 21.9367 15.0047 20.1366 12.8075 20.1366H12.3087C12.0396 20.1366 11.821 19.9045 11.8098 19.6327V16.6212C11.8098 16.3438 12.034 16.123 12.3087 16.123H20.7554V8.57705C20.7667 8.31099 20.9797 8.09587 21.2487 8.09587H24.2306C24.5052 8.09587 24.7294 8.32231 24.7294 8.59969V16.123H28.7034V8.58271C28.7146 8.31665 28.9276 8.10153 29.1966 8.10153H32.1785C32.4532 8.10153 32.6774 8.32797 32.6774 8.60535V16.1287C38.8821 16.1287 42.6095 19.8875 42.6095 26.1597C42.6095 28.1524 41.8696 29.9469 40.6758 31.3451C43.0074 32.732 44.5937 35.2568 44.5937 38.1948C44.5937 44.4614 40.8719 48.2259 34.6615 48.2259L34.6672 48.2145Z" fill="white"/>
<path d="M34.6671 26.1483C34.6671 23.9349 32.8903 22.1348 30.6931 22.1348H24.735V30.1562H30.6931C32.8847 30.1562 34.6671 28.3617 34.6671 26.1427V26.1483Z" fill="white"/>
<path d="M63.449 20.3746H64.7942C66.3132 20.3746 67.5519 19.1292 67.5519 17.6008V15.727C67.5519 14.1929 66.3132 12.9419 64.7942 12.9419H62.0366V25.7242H63.449V20.3746ZM66.1451 17.6008C66.1451 18.3367 65.5285 18.9594 64.7998 18.9594H63.4546V14.3458H64.7998C65.5285 14.3458 66.1451 14.9742 66.1451 15.7214V17.5951V17.6008Z" fill="white"/>
<path d="M76.0604 23.1654V15.5912C76.0604 14.1307 74.6367 12.9419 72.8879 12.9419C71.1391 12.9419 69.7155 14.1307 69.7155 15.5912V23.1654C69.7155 24.6259 71.1391 25.8147 72.8879 25.8147C74.6367 25.8147 76.0604 24.6259 76.0604 23.1654ZM72.8879 24.4335C71.9126 24.4335 71.1167 23.8617 71.1167 23.1654V15.5912C71.1167 14.8892 71.9126 14.3231 72.8879 14.3231C73.8632 14.3231 74.6591 14.8949 74.6591 15.5912V23.1654C74.6591 23.8674 73.8632 24.4335 72.8879 24.4335Z" fill="white"/>
<path d="M83.1227 24.3146H80.2305V12.9419H78.8348V25.7242H83.1227V24.3146Z" fill="white"/>
<path d="M87.0911 12.9419H85.6506V25.7242H87.0911V12.9419Z" fill="white"/>
<path d="M92.8642 25.7864C94.4617 25.7864 95.762 24.5354 95.762 23.0013V21.2011C95.762 19.7519 94.2879 18.8575 92.9035 18.75C92.1636 18.7103 91.3677 18.3254 91.3677 17.5725V15.727C91.3677 14.9685 92.0403 14.3515 92.8698 14.3515C93.6994 14.3515 94.372 14.9685 94.372 15.727V17.1026H95.7677V15.727C95.7677 14.1929 94.4673 12.9419 92.8698 12.9419C91.2724 12.9419 89.9552 14.1929 89.9552 15.727V17.5725C89.9552 18.9821 91.25 20.1312 92.8362 20.1312C93.5817 20.1312 94.3496 20.5331 94.3496 21.2011V23.0013C94.3496 23.7598 93.6826 24.3769 92.8642 24.3769C92.0459 24.3769 91.3509 23.7485 91.3509 23.0013V21.671H89.9552V23.0013C89.9552 24.5354 91.2612 25.7864 92.8698 25.7864H92.8642Z" fill="white"/>
<path d="M102.611 18.8575H99.8369V12.9419H98.4301V25.7242H99.8369V20.1595H102.611V25.7242H104.024V12.9419H102.611V18.8575Z" fill="white"/>
<path d="M68.2245 41.0029V40.267C68.2245 39.3046 67.7257 38.3932 66.8793 37.7988C67.4679 37.2497 67.7817 36.5931 67.7817 35.8911V34.3061C67.7817 32.6927 66.515 31.3794 64.9624 31.3794H61.9469V44.1617H65.1754C66.8849 44.1617 68.2245 42.7747 68.2245 41.0029ZM63.3426 38.614H65.1754C66.061 38.614 66.8121 39.3726 66.8121 40.267V41.2973C66.8121 42.1011 66.0778 42.7521 65.1754 42.7521H63.3426V38.614ZM66.3749 35.8855C66.3749 36.644 65.7191 37.3063 64.968 37.3063H63.3482V32.789H64.968C65.7303 32.789 66.3749 33.3494 66.3749 34.0117V35.8855Z" fill="white"/>
<path d="M72.3162 31.3794H70.8757V44.1617H72.3162V31.3794Z" fill="white"/>
<path d="M80.735 31.3794H75.1187V32.789H77.2486V44.1617H78.6499V32.789H80.735V31.3794Z" fill="white"/>
<path d="M89.2042 41.4838V40.4761H87.7917V41.4838C87.7917 42.2197 87.0911 42.8594 86.2896 42.8594C85.3311 42.8594 84.4847 42.214 84.4847 41.4838V34.1699C84.4847 33.434 85.3255 32.7943 86.2896 32.7943C87.0911 32.7943 87.7917 33.4397 87.7917 34.1699V35.1153H89.2042V34.1699C89.2042 32.6358 87.8982 31.3848 86.2896 31.3848C84.5464 31.3848 83.0723 32.6585 83.0723 34.1699V41.4838C83.0723 42.9952 84.5464 44.2689 86.2896 44.2689C87.8926 44.2689 89.2042 43.0179 89.2042 41.4838Z" fill="white"/>
<path d="M98.1666 41.6029V34.0287C98.1666 32.5682 96.7429 31.3794 94.9942 31.3794C93.2454 31.3794 91.8217 32.5682 91.8217 34.0287V41.6029C91.8217 43.0635 93.2454 44.2522 94.9942 44.2522C96.7429 44.2522 98.1666 43.0635 98.1666 41.6029ZM96.771 34.0287V41.6029C96.771 42.3049 95.975 42.871 94.9998 42.871C94.0245 42.871 93.2286 42.2992 93.2286 41.6029V34.0287C93.2286 33.3267 94.0245 32.7606 94.9998 32.7606C95.975 32.7606 96.771 33.3324 96.771 34.0287Z" fill="white"/>
<path d="M102.488 31.3794H101.048V44.1617H102.488V31.3794Z" fill="white"/>
<path d="M111.434 44.1617V31.3794H110.038V39.9103L106.972 31.3794H105.487V44.1617H106.882V35.359L110.178 44.1617H111.434Z" fill="white"/>
<path d="M64.0824 49.8169L61.5545 62.4633L61.5265 62.5992H62.9726L63.6564 59.2932H66.1058L66.8233 62.5992H68.2694L65.6182 49.8169H64.0824ZM65.8592 57.9742H63.8974C64.0207 57.3402 64.1384 56.7458 64.2505 56.1741C64.4579 55.1098 64.6541 54.1248 64.8559 53.1285L65.8592 57.9742Z" fill="white"/>
<path d="M73.3923 49.8169C71.7893 49.8169 70.4777 51.068 70.4777 52.6021V54.4475C70.4777 55.8571 71.7725 57.0062 73.3587 57.0062C74.1042 57.0062 74.8721 57.4081 74.8721 58.0761V59.8763C74.8721 60.6348 74.2051 61.2519 73.3867 61.2519C72.5684 61.2519 71.8734 60.6235 71.8734 59.8763V58.546H70.4777V59.8763C70.4777 61.4104 71.7837 62.6614 73.3923 62.6614C75.001 62.6614 76.2901 61.4104 76.2901 59.8763V58.0761C76.2901 56.6269 74.816 55.7325 73.4316 55.625C72.6917 55.5853 71.8958 55.2004 71.8958 54.4475V52.6021C71.8958 51.8435 72.5684 51.2265 73.3979 51.2265C74.2275 51.2265 74.9001 51.8548 74.9001 52.6021V53.9776H76.2957V52.6021C76.2957 51.068 74.9954 49.8169 73.3979 49.8169H73.3923Z" fill="white"/>
<path d="M81.7775 49.8169C80.1744 49.8169 78.8629 51.068 78.8629 52.6021V54.4475C78.8629 55.8571 80.1576 57.0062 81.7438 57.0062C82.4893 57.0062 83.2572 57.4081 83.2572 58.0761V59.8763C83.2572 60.6348 82.5902 61.2519 81.7719 61.2519C80.9535 61.2519 80.2585 60.6235 80.2585 59.8763V58.546H78.8629V59.8763C78.8629 61.4104 80.1688 62.6614 81.7775 62.6614C83.3861 62.6614 84.6753 61.4104 84.6753 59.8763V58.0761C84.6753 56.6269 83.2012 55.7325 81.8167 55.625C81.0768 55.5853 80.2809 55.2004 80.2809 54.4475V52.6021C80.2809 51.8435 80.9535 51.2265 81.7831 51.2265C82.6126 51.2265 83.2852 51.8548 83.2852 52.6021V53.9776H84.6809V52.6021C84.6809 51.068 83.3805 49.8169 81.7831 49.8169H81.7775Z" fill="white"/>
<path d="M90.5101 49.8169C88.7613 49.8169 87.3377 51.0057 87.3377 52.4662V60.0404C87.3377 61.501 88.7613 62.6897 90.5101 62.6897C92.2589 62.6897 93.6826 61.501 93.6826 60.0404V52.4662C93.6826 51.0057 92.2589 49.8169 90.5101 49.8169ZM92.2813 52.4662V60.0404C92.2813 60.7424 91.4854 61.3085 90.5101 61.3085C89.5348 61.3085 88.7389 60.7367 88.7389 60.0404V52.4662C88.7389 51.7642 89.5348 51.1982 90.5101 51.1982C91.4854 51.1982 92.2813 51.7699 92.2813 52.4662Z" fill="white"/>
<path d="M99.68 49.8169C97.9368 49.8169 96.4627 51.0906 96.4627 52.6021V59.9159C96.4627 61.4274 97.9368 62.7011 99.68 62.7011C101.283 62.7011 102.595 61.45 102.595 59.9159V58.9083H101.182V59.9159C101.182 60.6518 100.481 61.2915 99.68 61.2915C98.7215 61.2915 97.8751 60.6462 97.8751 59.9159V52.6021C97.8751 51.8661 98.7159 51.2265 99.68 51.2265C100.481 51.2265 101.182 51.8718 101.182 52.6021V53.5474H102.595V52.6021C102.595 51.068 101.289 49.8169 99.68 49.8169Z" fill="white"/>
<path d="M106.821 49.8169H105.38V62.5992H106.821V49.8169Z" fill="white"/>
<path d="M111.961 49.8169L109.433 62.4633L109.405 62.5992H110.957L111.445 60.5273H114.085L114.601 62.5992H116.153L113.502 49.8169H111.966H111.961ZM113.894 59.2026H111.624L111.989 57.227C112.258 55.7665 112.487 54.4815 112.74 53.1681L113.894 59.2026Z" fill="white"/>
<path d="M117.386 51.2321H119.516V62.5992H120.912V51.2321H122.997V49.8169H117.386V51.2321Z" fill="white"/>
<path d="M127.195 49.8169H125.755V62.5992H127.195V49.8169Z" fill="white"/>
<path d="M133.288 49.8169C131.539 49.8169 130.115 51.0057 130.115 52.4662V60.0404C130.115 61.501 131.539 62.6897 133.288 62.6897C135.037 62.6897 136.46 61.501 136.46 60.0404V52.4662C136.46 51.0057 135.037 49.8169 133.288 49.8169ZM135.059 52.4662V60.0404C135.059 60.7424 134.263 61.3085 133.288 61.3085C132.313 61.3085 131.517 60.7367 131.517 60.0404V52.4662C131.517 51.7642 132.313 51.1982 133.288 51.1982C134.263 51.1982 135.059 51.7699 135.059 52.4662Z" fill="white"/>
<path d="M143.797 49.8169V58.3535L140.731 49.8169H139.246V62.5992H140.642V53.7965L143.937 62.5992H145.193V49.8169H143.797Z" fill="white"/>
<path d="M120.211 71.1299H61.4424V73.7848H120.211V71.1299Z" fill="#D5223D"/>
<path d="M120.211 68.4805H61.4424V71.1354H120.211V68.4805Z" fill="white"/>
<path d="M125.08 73.7188V68.9915H128.044V69.6055H125.793V71.0458H127.889V71.6575H125.793V73.1048H128.072V73.7188H125.08ZM131.575 70.2333C131.55 70.0148 131.449 69.8455 131.27 69.7255C131.092 69.6039 130.867 69.5431 130.596 69.5431C130.402 69.5431 130.235 69.5739 130.093 69.6355C129.951 69.6955 129.841 69.7786 129.763 69.8848C129.686 69.9894 129.648 70.1087 129.648 70.2425C129.648 70.3549 129.674 70.4518 129.726 70.5334C129.78 70.6149 129.85 70.6834 129.936 70.7388C130.024 70.7927 130.118 70.8381 130.218 70.875C130.318 70.9104 130.414 70.9396 130.506 70.9627L130.968 71.0827C131.119 71.1197 131.273 71.1697 131.432 71.2328C131.59 71.2959 131.737 71.379 131.873 71.4821C132.008 71.5852 132.117 71.7129 132.2 71.8652C132.285 72.0176 132.327 72.1999 132.327 72.4123C132.327 72.68 132.258 72.9178 132.12 73.1255C131.983 73.3333 131.783 73.4972 131.522 73.6172C131.262 73.7372 130.947 73.7972 130.578 73.7972C130.224 73.7972 129.918 73.7411 129.659 73.6287C129.401 73.5164 129.198 73.3571 129.052 73.1509C128.906 72.9432 128.825 72.697 128.81 72.4123H129.525C129.539 72.5831 129.594 72.7254 129.691 72.8393C129.79 72.9516 129.915 73.0355 130.068 73.0909C130.221 73.1448 130.39 73.1717 130.573 73.1717C130.775 73.1717 130.954 73.1402 131.111 73.0771C131.269 73.0124 131.394 72.9232 131.485 72.8093C131.576 72.6939 131.621 72.5592 131.621 72.4054C131.621 72.2653 131.581 72.1507 131.501 72.0614C131.423 71.9722 131.316 71.8983 131.18 71.8398C131.046 71.7814 130.895 71.7298 130.725 71.6852L130.167 71.5328C129.788 71.4297 129.488 71.2782 129.267 71.0781C129.047 70.8781 128.937 70.6134 128.937 70.2841C128.937 70.0117 129.01 69.774 129.158 69.5708C129.306 69.3677 129.506 69.21 129.758 69.0977C130.011 68.9838 130.295 68.9268 130.612 68.9268C130.932 68.9268 131.215 68.983 131.459 69.0953C131.706 69.2077 131.9 69.3623 132.041 69.5593C132.183 69.7547 132.257 69.9794 132.263 70.2333H131.575ZM132.947 69.6055V68.9915H136.605V69.6055H135.13V73.7188H134.419V69.6055H132.947ZM137.591 73.7626C137.465 73.7626 137.356 73.718 137.265 73.6287C137.174 73.5379 137.129 73.4287 137.129 73.301C137.129 73.1748 137.174 73.0671 137.265 72.9778C137.356 72.887 137.465 72.8416 137.591 72.8416C137.717 72.8416 137.825 72.887 137.916 72.9778C138.007 73.0671 138.052 73.1748 138.052 73.301C138.052 73.3856 138.031 73.4633 137.988 73.5341C137.946 73.6033 137.891 73.6587 137.822 73.7003C137.752 73.7418 137.675 73.7626 137.591 73.7626ZM140.612 73.7188V73.2017L142.211 71.5444C142.382 71.3643 142.523 71.2066 142.634 71.0712C142.746 70.9342 142.83 70.8042 142.885 70.6811C142.941 70.558 142.968 70.4272 142.968 70.2887C142.968 70.1317 142.931 69.9963 142.858 69.8825C142.784 69.767 142.683 69.6786 142.555 69.617C142.427 69.5539 142.284 69.5224 142.124 69.5224C141.954 69.5224 141.807 69.557 141.68 69.6262C141.554 69.6955 141.457 69.7932 141.39 69.9194C141.322 70.0456 141.288 70.1933 141.288 70.3626H140.607C140.607 70.0748 140.673 69.8232 140.806 69.6078C140.938 69.3923 141.119 69.2254 141.35 69.1069C141.581 68.9869 141.843 68.9268 142.137 68.9268C142.434 68.9268 142.696 68.9861 142.922 69.1046C143.15 69.2215 143.328 69.3816 143.455 69.5847C143.583 69.7863 143.647 70.014 143.647 70.2679C143.647 70.4434 143.614 70.6149 143.548 70.7827C143.483 70.9504 143.37 71.1374 143.208 71.3436C143.047 71.5482 142.822 71.7968 142.534 72.0891L141.595 73.0724V73.1071H143.723V73.7188H140.612ZM146.244 73.7972C145.879 73.7957 145.567 73.6995 145.309 73.5087C145.05 73.3179 144.853 73.0401 144.716 72.6754C144.579 72.3107 144.51 71.8714 144.51 71.3574C144.51 70.845 144.579 70.4072 144.716 70.044C144.854 69.6809 145.053 69.4039 145.311 69.2131C145.571 69.0223 145.882 68.9268 146.244 68.9268C146.605 68.9268 146.915 69.023 147.174 69.2154C147.432 69.4062 147.63 69.6832 147.767 70.0463C147.906 70.408 147.975 70.845 147.975 71.3574C147.975 71.8729 147.906 72.313 147.769 72.6777C147.633 73.0409 147.435 73.3187 147.176 73.511C146.918 73.7018 146.607 73.7972 146.244 73.7972ZM146.244 73.1809C146.564 73.1809 146.814 73.0247 146.994 72.7124C147.176 72.4 147.266 71.9483 147.266 71.3574C147.266 70.965 147.225 70.6334 147.142 70.3626C147.06 70.0902 146.942 69.884 146.788 69.744C146.636 69.6024 146.455 69.5316 146.244 69.5316C145.925 69.5316 145.675 69.6886 145.494 70.0025C145.312 70.3164 145.22 70.7681 145.219 71.3574C145.219 71.7514 145.26 72.0845 145.341 72.3569C145.424 72.6277 145.542 72.8332 145.694 72.9732C145.847 73.1117 146.03 73.1809 146.244 73.1809ZM150.587 68.9915V73.7188H149.872V69.707H149.844L148.713 70.4457V69.7624L149.892 68.9915H150.587ZM153.512 73.7834C153.195 73.7834 152.912 73.7288 152.662 73.6195C152.415 73.5102 152.218 73.3587 152.074 73.1648C151.931 72.9693 151.854 72.7431 151.843 72.4862H152.568C152.577 72.6262 152.624 72.7478 152.709 72.8509C152.795 72.9524 152.907 73.0309 153.046 73.0863C153.184 73.1417 153.338 73.1694 153.507 73.1694C153.693 73.1694 153.858 73.1371 154.001 73.0724C154.146 73.0078 154.259 72.9178 154.34 72.8024C154.422 72.6854 154.463 72.5508 154.463 72.3984C154.463 72.2399 154.422 72.1007 154.34 71.9806C154.26 71.8591 154.143 71.7637 153.987 71.6944C153.833 71.6252 153.647 71.5906 153.429 71.5906H153.029V71.0089H153.429C153.604 71.0089 153.758 70.9773 153.89 70.9142C154.024 70.8511 154.129 70.7634 154.204 70.6511C154.28 70.5372 154.317 70.4041 154.317 70.2518C154.317 70.1056 154.284 69.9786 154.218 69.8709C154.154 69.7617 154.061 69.6763 153.941 69.6147C153.823 69.5531 153.683 69.5224 153.521 69.5224C153.367 69.5224 153.223 69.5508 153.089 69.6078C152.957 69.6632 152.849 69.7432 152.766 69.8478C152.683 69.9509 152.639 70.0748 152.632 70.2195H151.942C151.95 69.964 152.025 69.7393 152.168 69.5455C152.313 69.3516 152.504 69.2 152.741 69.0907C152.978 68.9815 153.241 68.9268 153.53 68.9268C153.833 68.9268 154.095 68.9861 154.315 69.1046C154.537 69.2215 154.707 69.3777 154.828 69.5732C154.949 69.7686 155.009 69.9825 155.008 70.2148C155.009 70.4795 154.935 70.7042 154.786 70.8888C154.638 71.0735 154.441 71.1974 154.195 71.2605V71.2974C154.509 71.3451 154.752 71.4698 154.924 71.6713C155.098 71.8729 155.185 72.123 155.183 72.4215C155.185 72.6816 155.112 72.9147 154.966 73.1209C154.821 73.3271 154.624 73.4895 154.373 73.608C154.122 73.7249 153.835 73.7834 153.512 73.7834Z" fill="white"/>
</svg>
